<?xml version="1.0" encoding="utf-8"?>
<svg viewBox="0 0 94 124" xmlns="http://www.w3.org/2000/svg">
  <g>
    <path fill-rule="evenodd" clip-rule="evenodd" d="M 4.708 56.723 L 13.098 56.723 L 13.098 55.673 L 13.098 38.247 C 13.098 28.281 17.009 19.22 23.303 12.654 L 23.303 12.646 C 29.6 6.079 38.291 2 47.854 2 C 57.409 2 66.098 6.079 72.395 12.646 L 72.404 12.654 C 78.698 19.22 82.609 28.281 82.609 38.247 L 82.609 55.673 L 82.609 56.723 L 89.292 56.723 C 90.781 56.723 92 57.994 92 59.546 L 92 119.177 C 92 120.729 90.781 122 89.292 122 L 4.708 122 C 3.219 122 2 120.729 2 119.177 L 2 59.546 C 2 57.994 3.219 56.723 4.708 56.723 Z M 26.601 56.723 L 69.103 56.723 L 69.103 55.673 L 69.103 38.046 C 69.103 31.952 66.712 26.408 62.865 22.392 L 62.86 22.396 C 59.01 18.378 53.695 15.883 47.854 15.883 C 42.009 15.883 36.694 18.377 32.84 22.392 C 28.992 26.408 26.601 31.952 26.601 38.046 L 26.601 55.674 L 26.601 56.723 Z M 48.025 89.352 L 52.315 109.995 L 40.556 110.047 L 44.007 89.126 C 40.794 88.052 38.465 84.912 38.465 81.205 C 38.465 76.614 42.033 72.894 46.437 72.894 C 50.836 72.894 54.407 76.614 54.407 81.205 C 54.407 85.229 51.665 88.585 48.025 89.352 Z" style="stroke-width: 4px; fill: rgba(255, 255, 255, 0); stroke: rgb(181, 181, 181);"/>
  </g>
</svg>